<svg width="70" height="70" viewBox="0 0 70 70" fill="none" xmlns="http://www.w3.org/2000/svg">
<g clip-path="url(#clip0_1053_10009)">
<rect width="70" height="70" fill="#360000"/>
</g>
<path d="M41.5204 29.5748C41.5204 25.9788 38.5924 23.0508 34.9964 23.0508C31.4044 23.0508 28.4844 25.9788 28.4844 29.5748C28.4844 33.1668 31.4044 36.0868 34.9964 36.0868C38.5924 36.0868 41.5204 33.1668 41.5204 29.5748ZM29.8404 29.5748C29.8404 26.7308 32.1524 24.4068 34.9964 24.4068C37.8524 24.4068 40.1644 26.7268 40.1644 29.5748C40.1644 32.4188 37.8524 34.7308 34.9964 34.7308C32.1484 34.7308 29.8404 32.4188 29.8404 29.5748Z" fill="white"/>
<path d="M34.9917 51C35.2237 51 45.5677 35.168 45.5677 29.576C45.5677 23.74 40.8317 19 34.9917 19C29.1677 19 24.4277 23.74 24.4277 29.576C24.4317 35.168 34.7637 51 34.9917 51ZM34.9917 20.356C40.0757 20.356 44.2117 24.492 44.2117 29.576C44.2117 33.62 37.6557 44.648 34.9957 48.676C32.3357 44.648 25.7917 33.62 25.7917 29.576C25.7877 24.492 29.9157 20.356 34.9917 20.356Z" fill="white"/>
<defs>
<clipPath id="clip0_1053_10009">
<rect width="70" height="70" rx="35" fill="white"/>
</clipPath>
</defs>
</svg>
