<svg width="70" height="70" viewBox="0 0 70 70" fill="none" xmlns="http://www.w3.org/2000/svg">
<g clip-path="url(#clip0_1052_10006)">
<rect width="70" height="70" fill="#360000"/>
</g>
<path d="M44.493 51.8008H44.4918C37.9998 51.8004 30.6362 45.1516 27.7718 42.2932C24.6382 39.1664 17.4394 31.1664 18.2646 24.428C18.575 21.8948 19.9826 19.8596 22.4486 18.3788C22.647 18.2596 22.8738 18.1992 23.1226 18.1992C25.0622 18.1992 28.8874 22.7268 30.4358 24.9192C32.649 28.0532 32.3354 28.9376 32.2174 29.2704C31.8422 30.328 31.1442 30.9448 30.5286 31.4884C29.9898 31.9644 29.5246 32.3752 29.2874 33.0436C29.2546 33.206 29.4698 34.0828 30.8754 35.8104C33.0842 38.5252 35.9946 40.7112 36.9318 40.7112C37.6234 40.4744 38.035 40.0092 38.5106 39.4704C39.0546 38.8548 39.671 38.1572 40.729 37.7816C40.8778 37.7288 41.0426 37.702 41.2186 37.702C43.4486 37.702 49.8994 42.9924 51.4134 45.6648C51.5738 45.9484 52.0626 46.8116 51.6202 47.5496C49.9294 50.3708 47.531 51.8008 44.493 51.8008ZM23.1782 19.808C21.1878 21.0308 20.0998 22.6068 19.853 24.6224C19.3398 28.8116 22.7226 34.9944 28.9018 41.1604C31.6258 43.8784 38.597 50.2004 44.4926 50.2008H44.4934C46.9322 50.2008 48.7978 49.094 50.193 46.8184C49.929 45.2372 42.907 39.328 41.2298 39.3024C40.5826 39.5432 40.1774 40.0012 39.7102 40.53C39.1658 41.146 38.549 41.844 37.4906 42.2196C37.3194 42.2804 37.1318 42.3112 36.9322 42.3112C34.8126 42.3112 30.7678 38.4992 28.9142 35.8744C27.871 34.3976 27.4998 33.2968 27.7798 32.5084C28.155 31.45 28.8534 30.8332 29.469 30.2892C29.9986 29.8216 30.457 29.416 30.6974 28.7676C30.7062 28.1912 29.4014 25.8796 26.9654 23.1176C24.965 20.8492 23.6222 19.908 23.1782 19.808Z" fill="white"/>
<defs>
<clipPath id="clip0_1052_10006">
<rect width="70" height="70" rx="35" fill="white"/>
</clipPath>
</defs>
</svg>
