<svg width="70" height="70" viewBox="0 0 70 70" fill="none" xmlns="http://www.w3.org/2000/svg">
<g clip-path="url(#clip0_1052_10008)">
<rect width="70" height="70" fill="#360000"/>
</g>
<path d="M51.3484 21.8008H18.6532C17.0804 21.8008 15.8008 23.0804 15.8008 24.6532V45.3484C15.8008 46.9212 17.0804 48.2008 18.6532 48.2008H51.3484C52.9212 48.2008 54.2008 46.9212 54.2008 45.3484V24.6532C54.2008 23.0804 52.9212 21.8008 51.3484 21.8008ZM41.4456 34.034L52.2452 23.7824C52.4644 24.008 52.6008 24.3144 52.6008 24.6532V45.3484C52.6008 45.6728 52.474 45.9656 52.2708 46.1884L41.4456 34.034ZM51.3484 23.4008C51.6528 23.4008 51.928 23.514 52.1452 23.6952L35.672 36.3696C35.2764 36.674 34.7252 36.674 34.33 36.3696L17.8564 23.6952C18.0736 23.514 18.3488 23.4008 18.6532 23.4008H51.3484ZM17.7308 46.1888C17.528 45.966 17.4008 45.6728 17.4008 45.3484V24.6532C17.4008 24.3144 17.5372 24.008 17.7564 23.7824L28.556 34.034L17.7308 46.1888ZM18.6532 46.6008C18.36 46.6008 18.094 46.4952 17.88 46.326L30.4892 35.8656L34.2436 39.4228C34.6684 39.8252 35.3332 39.8252 35.7576 39.4228L39.5124 35.8656L52.1212 46.326C51.908 46.4952 51.6416 46.6008 51.3484 46.6008H18.6532Z" fill="white"/>
<defs>
<clipPath id="clip0_1052_10008">
<rect width="70" height="70" rx="35" fill="white"/>
</clipPath>
</defs>
</svg>
