<svg width="71" height="71" viewBox="0 0 71 71" fill="none" xmlns="http://www.w3.org/2000/svg">
<g clip-path="url(#clip0_1061_9702)">
<rect x="0.5" y="0.199219" width="70" height="70" fill="white" fill-opacity="0.08"/>
</g>
<path d="M51.8474 22H19.1522C17.5794 22 16.2998 23.2796 16.2998 24.8524V45.5476C16.2998 47.1204 17.5794 48.4 19.1522 48.4H51.8474C53.4202 48.4 54.6998 47.1204 54.6998 45.5476V24.8524C54.6998 23.2796 53.4202 22 51.8474 22ZM41.9446 34.2332L52.7442 23.9816C52.9634 24.2072 53.0998 24.5136 53.0998 24.8524V45.5476C53.0998 45.872 52.973 46.1648 52.7698 46.3876L41.9446 34.2332ZM51.8474 23.6C52.1518 23.6 52.427 23.7132 52.6442 23.8944L36.171 36.5688C35.7754 36.8732 35.2242 36.8732 34.829 36.5688L18.3554 23.8944C18.5726 23.7132 18.8478 23.6 19.1522 23.6H51.8474ZM18.2298 46.388C18.027 46.1652 17.8998 45.872 17.8998 45.5476V24.8524C17.8998 24.5136 18.0362 24.2072 18.2554 23.9816L29.055 34.2332L18.2298 46.388ZM19.1522 46.8C18.859 46.8 18.593 46.6944 18.379 46.5252L30.9882 36.0648L34.7426 39.622C35.1674 40.0244 35.8322 40.0244 36.2566 39.622L40.0114 36.0648L52.6202 46.5252C52.407 46.6944 52.1406 46.8 51.8474 46.8H19.1522Z" fill="white"/>
<defs>
<clipPath id="clip0_1061_9702">
<rect x="0.5" y="0.199219" width="70" height="70" rx="35" fill="white"/>
</clipPath>
</defs>
</svg>
