<svg width="71" height="71" viewBox="0 0 71 71" fill="none" xmlns="http://www.w3.org/2000/svg">
<g clip-path="url(#clip0_1061_9701)">
<rect x="0.5" y="0.199219" width="70" height="70" fill="white" fill-opacity="0.08"/>
</g>
<path d="M44.993 52H44.9918C38.4998 51.9996 31.1362 45.3508 28.2718 42.4924C25.1382 39.3656 17.9394 31.3656 18.7646 24.6272C19.075 22.094 20.4826 20.0588 22.9486 18.578C23.147 18.4588 23.3738 18.3984 23.6226 18.3984C25.5622 18.3984 29.3874 22.926 30.9358 25.1184C33.149 28.2524 32.8354 29.1368 32.7174 29.4696C32.3422 30.5272 31.6442 31.144 31.0286 31.6876C30.4898 32.1636 30.0246 32.5744 29.7874 33.2428C29.7546 33.4052 29.9698 34.282 31.3754 36.0096C33.5842 38.7244 36.4946 40.9104 37.4318 40.9104C38.1234 40.6736 38.535 40.2084 39.0106 39.6696C39.5546 39.054 40.171 38.3564 41.229 37.9808C41.3778 37.928 41.5426 37.9012 41.7186 37.9012C43.9486 37.9012 50.3994 43.1916 51.9134 45.864C52.0738 46.1476 52.5626 47.0108 52.1202 47.7488C50.4294 50.57 48.031 52 44.993 52ZM23.6782 20.0072C21.6878 21.23 20.5998 22.806 20.353 24.8216C19.8398 29.0108 23.2226 35.1936 29.4018 41.3596C32.1258 44.0776 39.097 50.3996 44.9926 50.4C47.4314 50.4 49.2978 49.2932 50.693 47.0176C50.429 45.4364 43.407 39.5272 41.7298 39.5016C41.0826 39.7424 40.6774 40.2004 40.2102 40.7292C39.6658 41.3452 39.049 42.0432 37.9906 42.4188C37.8194 42.4796 37.6318 42.5104 37.4322 42.5104C35.3126 42.5104 31.2678 38.6984 29.4142 36.0736C28.371 34.5968 27.9998 33.496 28.2798 32.7076C28.655 31.6492 29.3534 31.0324 29.969 30.4884C30.4986 30.0208 30.957 29.6152 31.1974 28.9668C31.2062 28.3904 29.9014 26.0788 27.4654 23.3168C25.465 21.0484 24.1222 20.1072 23.6782 20.0072Z" fill="white"/>
<defs>
<clipPath id="clip0_1061_9701">
<rect x="0.5" y="0.199219" width="70" height="70" rx="35" fill="white"/>
</clipPath>
</defs>
</svg>
