<svg width="71" height="71" viewBox="0 0 71 71" fill="none" xmlns="http://www.w3.org/2000/svg">
<g clip-path="url(#clip0_1061_9704)">
<rect x="0.5" y="0.5" width="70" height="70" fill="white" fill-opacity="0.08"/>
</g>
<path d="M42.0204 30.0748C42.0204 26.4788 39.0924 23.5508 35.4964 23.5508C31.9044 23.5508 28.9844 26.4788 28.9844 30.0748C28.9844 33.6668 31.9044 36.5868 35.4964 36.5868C39.0924 36.5868 42.0204 33.6668 42.0204 30.0748ZM30.3404 30.0748C30.3404 27.2308 32.6524 24.9068 35.4964 24.9068C38.3524 24.9068 40.6644 27.2268 40.6644 30.0748C40.6644 32.9188 38.3524 35.2308 35.4964 35.2308C32.6484 35.2308 30.3404 32.9188 30.3404 30.0748Z" fill="white"/>
<path d="M35.4917 51.5C35.7237 51.5 46.0677 35.668 46.0677 30.076C46.0677 24.24 41.3317 19.5 35.4917 19.5C29.6677 19.5 24.9277 24.24 24.9277 30.076C24.9317 35.668 35.2637 51.5 35.4917 51.5ZM35.4917 20.856C40.5757 20.856 44.7117 24.992 44.7117 30.076C44.7117 34.12 38.1557 45.148 35.4957 49.176C32.8357 45.148 26.2917 34.12 26.2917 30.076C26.2877 24.992 30.4157 20.856 35.4917 20.856Z" fill="white"/>
<defs>
<clipPath id="clip0_1061_9704">
<rect x="0.5" y="0.5" width="70" height="70" rx="35" fill="white"/>
</clipPath>
</defs>
</svg>
