<svg width="89" height="89" viewBox="0 0 89 89" fill="none" xmlns="http://www.w3.org/2000/svg">
<g filter="url(#filter0_d_659_3959)">
<circle cx="44.5" cy="43.5" r="40.5" fill="#FE1C21"/>
</g>
<path fill-rule="evenodd" clip-rule="evenodd" d="M53.3952 52.3996C52.8077 52.9851 52.18 53.5226 51.5223 53.9998V48.9566C51.5223 44.7696 48.8112 41.206 45.0552 39.9247C46.6634 38.908 47.7342 37.1133 47.7342 35.07C47.7342 31.8976 45.1555 29.323 41.9852 29.323C38.815 29.323 36.2362 31.8978 36.2362 35.07C36.2362 37.1134 37.307 38.9101 38.9153 39.9247C35.1594 41.2061 32.4502 44.7675 32.4502 48.9566V53.7051C24.9245 47.8436 24.2387 36.7024 30.9703 29.9729C37.1746 23.7727 47.1932 23.7707 53.3955 29.9729C59.5977 36.1732 59.5875 46.1958 53.3955 52.4001L53.3952 52.3996ZM41.985 39.4175C44.3834 39.4175 46.3365 37.4684 46.3365 35.0701C46.3365 32.6718 44.3854 30.7166 41.985 30.7166C39.5867 30.7166 37.6356 32.6718 37.6356 35.0701C37.6336 37.4684 39.5867 39.4175 41.985 39.4175ZM33.8474 54.6794C38.7924 57.7414 45.0949 57.8377 50.1221 54.916V48.9566C50.1221 44.4668 46.4705 40.8174 41.9845 40.8174C37.4967 40.8174 33.8454 44.467 33.8454 48.9566L33.8474 54.6794ZM54.3834 28.9801C51.1249 25.7195 46.7915 23.9309 42.1811 23.9309C37.573 23.9309 33.2376 25.7196 29.9788 28.9801C23.2493 35.7076 23.2493 46.6588 29.9788 53.3863C36.7247 60.1322 47.6391 60.1322 54.3829 53.3863C61.1268 46.6424 61.1273 35.726 54.3834 28.9801ZM42.3018 54.3909C42.3018 54.0079 41.9889 53.6931 41.6019 53.6931C41.2169 53.6931 40.9041 54.0059 40.9041 54.3909C40.9041 54.7799 41.2169 55.0948 41.6019 55.0948C41.9889 55.0927 42.3018 54.7739 42.3018 54.3909ZM45.3378 46.7949C45.3378 44.7395 43.6614 43.0611 41.604 43.0611C40.5372 43.0611 39.5185 43.5223 38.8106 44.3184C38.554 44.6071 38.582 45.0503 38.8708 45.305C39.1596 45.5597 39.6007 45.5356 39.8574 45.2468C40.3006 44.7455 40.9383 44.4608 41.606 44.4608C42.8933 44.4608 43.9421 45.5056 43.9421 46.7929C43.9421 47.7916 43.3104 48.6779 42.37 49.0027C41.4816 49.3096 40.9081 50.1137 40.9081 51.0521L40.9041 51.762C40.9041 52.151 41.2169 52.4658 41.602 52.4658C41.989 52.4658 42.3018 52.153 42.3018 51.762V51.0541C42.3018 50.7173 42.5023 50.4405 42.8212 50.3282C44.3271 49.8069 45.3378 48.3891 45.3378 46.7949ZM65.6453 62.2056L63.2029 64.646C63.1167 64.7322 62.9884 64.7322 62.9021 64.646L58.0875 59.8314C58.0073 59.7492 58.0073 59.6128 58.0875 59.5306L60.5299 57.0902C60.6101 57.01 60.7505 57.012 60.8287 57.0902L65.6433 61.9048C65.7256 61.987 65.7256 62.1234 65.6453 62.2056ZM56.8563 55.855C57.0448 55.6665 57.2293 55.476 57.4097 55.2815L58.8856 56.7573L57.7547 57.8863L56.2788 56.4104C56.4733 56.2339 56.6658 56.0455 56.8563 55.855ZM55.8677 54.8704C55.988 54.7521 56.1043 54.6277 56.2206 54.5094C62.6596 47.7337 63.3254 37.4508 58.2199 29.9487C57.4538 28.8218 56.2386 27.368 55.1157 26.3934C47.6783 19.6957 36.3122 19.6896 28.8707 26.3814C28.3393 26.8727 27.8661 27.3399 27.3768 27.8693C20.6894 35.3128 20.6914 46.6707 27.3848 54.1122C27.3928 54.1182 27.4008 54.1302 27.4109 54.1422C27.6395 54.4069 28.608 55.3875 28.8586 55.584C36.3043 62.2879 47.6821 62.2817 55.1236 55.578L55.8677 54.8704ZM66.6342 60.9181L61.8195 56.1035C61.3162 55.5982 60.5401 55.4879 59.9245 55.8207L58.3303 54.2265C61.7173 50.0616 63.3515 44.822 62.9585 39.4195C62.5895 34.3923 60.4559 29.7198 56.8563 26.1186C48.7048 17.9672 35.4019 17.8291 27.1139 26.1186C21.9383 31.2963 19.907 38.6156 21.465 45.6279C22.3192 49.47 24.2663 53.0094 27.1139 55.859C31.0863 59.8334 36.366 62.0192 41.9851 62.0192C46.8619 62.0192 51.4862 60.3709 55.2218 57.3349L56.816 58.9291C56.4931 59.5367 56.5874 60.3107 57.0987 60.826L61.9134 65.6407C62.537 66.2643 63.5698 66.2623 64.1914 65.6407L66.6318 63.1963C67.2615 62.5666 67.2618 61.5437 66.6342 60.9181Z" fill="white"/>
<defs>
<filter id="filter0_d_659_3959" x="0.609303" y="0.551163" width="87.7814" height="87.7814" filterUnits="userSpaceOnUse" color-interpolation-filters="sRGB">
<feFlood flood-opacity="0" result="BackgroundImageFix"/>
<feColorMatrix in="SourceAlpha" type="matrix" values="0 0 0 0 0 0 0 0 0 0 0 0 0 0 0 0 0 0 127 0" result="hardAlpha"/>
<feOffset dy="0.94186"/>
<feGaussianBlur stdDeviation="1.69535"/>
<feComposite in2="hardAlpha" operator="out"/>
<feColorMatrix type="matrix" values="0 0 0 0 0 0 0 0 0 0 0 0 0 0 0 0 0 0 0.25 0"/>
<feBlend mode="normal" in2="BackgroundImageFix" result="effect1_dropShadow_659_3959"/>
<feBlend mode="normal" in="SourceGraphic" in2="effect1_dropShadow_659_3959" result="shape"/>
</filter>
</defs>
</svg>
