<svg width="94" height="94" viewBox="0 0 94 94" fill="none" xmlns="http://www.w3.org/2000/svg">
<g filter="url(#filter0_d_1048_10203)">
<circle cx="47" cy="46" r="43" fill="#360000"/>
</g>
<path fill-rule="evenodd" clip-rule="evenodd" d="M34.7255 26.2512H32.8653V30.6066L33.3531 30.1188C33.5975 29.8744 33.9933 29.8744 34.2377 30.1188L34.7255 30.6066V26.2512ZM49.9023 25.0052L64.5224 25C65.606 25 66.4881 25.8826 66.4881 26.9656V28.4822H67.7341C68.9817 28.4822 70 29.5005 70 30.7481V61.9942C70 63.2418 68.9817 64.2601 67.7341 64.2601H51.246C50.6287 64.2601 50.1253 64.4664 49.6871 64.8983C47.5627 66.994 45.4378 66.994 43.3134 64.8983C42.8758 64.4664 42.3718 64.2601 41.7551 64.2601H25.2659C24.0183 64.2601 23 63.2418 23 61.9942V30.7481C23 29.5005 24.0183 28.4822 25.2659 28.4822H26.5119V26.9656C26.5119 25.882 27.3945 25 28.4776 25H43.0178C44.0544 25 45.2315 25.3849 45.9741 26.1275C46.1757 26.3291 46.3506 26.5552 46.5 26.8058C47.1883 25.6476 48.379 25.0846 49.9023 25.0052ZM43.0972 59.5325L28.4776 59.5272C28.0849 59.5272 27.7627 59.2056 27.7627 58.8123V26.9662C27.7627 26.5735 28.0844 26.2512 28.4776 26.2512H31.6141V32.1168C31.6141 32.5989 32.1425 32.9085 32.5697 32.6479C32.7013 32.5675 33.6131 31.6275 33.7954 31.4453L34.9046 32.5545C35.303 32.9566 35.9767 32.6699 35.9767 32.1163V26.2507H43.0183C43.7213 26.2507 44.5829 26.504 45.0905 27.0116C45.5532 27.4743 45.8148 28.172 45.8754 29.1036V60.4197C45.1198 59.8683 44.149 59.5868 43.0982 59.5319L43.0972 59.5325ZM47.1251 60.4202C47.8886 59.863 49.0474 59.5272 49.9817 59.5272H64.5219C64.9146 59.5272 65.2368 59.2056 65.2368 58.8123V26.9662C65.2368 26.5735 64.9151 26.2512 64.5219 26.2512H49.9817C49.2787 26.2512 48.4171 26.5045 47.9095 27.0121C47.4468 27.4748 47.1852 28.1725 47.1246 29.1041L47.1251 60.4202ZM47.0953 62.4339C47.4833 61.3065 48.8819 60.7785 49.9822 60.7785H64.5224C65.606 60.7785 66.4881 59.8959 66.4881 58.8128V29.7334H67.7341C68.2913 29.7334 68.7493 30.1914 68.7493 30.7486V61.9947C68.7493 62.552 68.2913 63.0099 67.7341 63.0099H51.246C50.3112 63.0099 49.4798 63.3515 48.8129 64.0095C47.2713 65.5302 45.7297 65.5302 44.1881 64.0095C43.5212 63.3515 42.6893 63.0099 41.7551 63.0099H25.2659C24.7087 63.0099 24.2507 62.552 24.2507 61.9947V30.7481C24.2507 30.1909 24.7087 29.7329 25.2659 29.7329H26.5119V58.8123C26.5119 59.8959 27.3945 60.778 28.4776 60.778H43.0178C43.6189 60.778 44.421 60.9837 44.9391 61.2944C45.3877 61.5634 45.725 61.9436 45.9047 62.4334C46.1036 63.011 46.8969 63.0115 47.0953 62.4339ZM37.3089 31.1836H43.3077C43.6528 31.1836 43.9333 30.9037 43.9333 30.558C43.9333 30.2123 43.6534 29.9324 43.3077 29.9324H37.3089C36.9637 29.9324 36.6833 30.2123 36.6833 30.558C36.6833 30.9037 36.9632 31.1836 37.3089 31.1836ZM30.3299 36.116H43.3077C43.6528 36.116 43.9333 35.8361 43.9333 35.4904C43.9333 35.1447 43.6534 34.8648 43.3077 34.8648H30.3299C29.9847 34.8648 29.7043 35.1447 29.7043 35.4904C29.7043 35.8361 29.9842 36.116 30.3299 36.116ZM30.3299 41.0484H43.3077C43.6528 41.0484 43.9333 40.7685 43.9333 40.4228C43.9333 40.0771 43.6534 39.7972 43.3077 39.7972H30.3299C29.9847 39.7972 29.7043 40.0771 29.7043 40.4228C29.7043 40.7685 29.9842 41.0484 30.3299 41.0484ZM30.3299 45.9808H43.3077C43.6528 45.9808 43.9333 45.7009 43.9333 45.3552C43.9333 45.0095 43.6534 44.7296 43.3077 44.7296H30.3299C29.9847 44.7296 29.7043 45.0095 29.7043 45.3552C29.7043 45.7009 29.9842 45.9808 30.3299 45.9808ZM30.3299 50.9132H43.3077C43.6528 50.9132 43.9333 50.6333 43.9333 50.2876C43.9333 49.9419 43.6534 49.6619 43.3077 49.6619H30.3299C29.9847 49.6619 29.7043 49.9419 29.7043 50.2876C29.7043 50.6333 29.9842 50.9132 30.3299 50.9132ZM30.3299 55.8456H43.3077C43.6528 55.8456 43.9333 55.5657 43.9333 55.22C43.9333 54.8742 43.6534 54.5943 43.3077 54.5943H30.3299C29.9847 54.5943 29.7043 54.8742 29.7043 55.22C29.7043 55.5657 29.9842 55.8456 30.3299 55.8456ZM49.6923 31.1836H62.6701C63.0153 31.1836 63.2957 30.9037 63.2957 30.558C63.2957 30.2123 63.0158 29.9324 62.6701 29.9324H49.6923C49.3472 29.9324 49.0667 30.2123 49.0667 30.558C49.0667 30.9037 49.3466 31.1836 49.6923 31.1836ZM49.6923 36.116H62.6701C63.0153 36.116 63.2957 35.8361 63.2957 35.4904C63.2957 35.1447 63.0158 34.8648 62.6701 34.8648H49.6923C49.3472 34.8648 49.0667 35.1447 49.0667 35.4904C49.0667 35.8361 49.3466 36.116 49.6923 36.116ZM49.6923 41.0484H62.6701C63.0153 41.0484 63.2957 40.7685 63.2957 40.4228C63.2957 40.0771 63.0158 39.7972 62.6701 39.7972H49.6923C49.3472 39.7972 49.0667 40.0771 49.0667 40.4228C49.0667 40.7685 49.3466 41.0484 49.6923 41.0484ZM49.6923 45.9808H62.6701C63.0153 45.9808 63.2957 45.7009 63.2957 45.3552C63.2957 45.0095 63.0158 44.7296 62.6701 44.7296H49.6923C49.3472 44.7296 49.0667 45.0095 49.0667 45.3552C49.0667 45.7009 49.3466 45.9808 49.6923 45.9808ZM49.6923 50.9132H53.8837C54.2289 50.9132 54.5093 50.6333 54.5093 50.2876C54.5093 49.9419 54.2294 49.6619 53.8837 49.6619H49.6923C49.3472 49.6619 49.0667 49.9419 49.0667 50.2876C49.0667 50.6333 49.3466 50.9132 49.6923 50.9132ZM49.6923 55.8456H53.2722C53.6174 55.8456 53.8978 55.5657 53.8978 55.22C53.8978 54.8742 53.6179 54.5943 53.2722 54.5943H49.6923C49.3472 54.5943 49.0667 54.8742 49.0667 55.22C49.0667 55.5657 49.3466 55.8456 49.6923 55.8456ZM61.6523 50.9471C60.2731 49.5679 58.0364 49.5679 56.6572 50.9471C55.278 52.3263 55.278 54.563 56.6572 55.9422C58.0364 57.3214 60.2731 57.3214 61.6523 55.9422C63.0315 54.563 63.0315 52.3263 61.6523 50.9471ZM59.1545 48.6619C56.5131 48.6619 54.3715 50.8035 54.3715 53.4449C54.3715 56.0863 56.5131 58.228 59.1545 58.228C61.7959 58.228 63.9375 56.0863 63.9375 53.4449C63.9375 50.8035 61.7959 48.6619 59.1545 48.6619ZM57.4191 54.0705H58.5294V55.1808C58.5294 55.526 58.8093 55.8064 59.155 55.8064C59.5007 55.8064 59.7806 55.5265 59.7806 55.1808V54.0705H60.8909C61.2361 54.0705 61.5165 53.7906 61.5165 53.4449C61.5165 53.0992 61.2366 52.8193 60.8909 52.8193H59.7806V51.7091C59.7806 51.3639 59.5007 51.0834 59.155 51.0834C58.8093 51.0834 58.5294 51.3633 58.5294 51.7091V52.8193H57.4191C57.074 52.8193 56.7935 53.0992 56.7935 53.4449C56.7935 53.7906 57.0734 54.0705 57.4191 54.0705Z" fill="white"/>
<defs>
<filter id="filter0_d_1048_10203" x="0.4" y="0.4" width="93.2" height="93.2" filterUnits="userSpaceOnUse" color-interpolation-filters="sRGB">
<feFlood flood-opacity="0" result="BackgroundImageFix"/>
<feColorMatrix in="SourceAlpha" type="matrix" values="0 0 0 0 0 0 0 0 0 0 0 0 0 0 0 0 0 0 127 0" result="hardAlpha"/>
<feOffset dy="1"/>
<feGaussianBlur stdDeviation="1.8"/>
<feComposite in2="hardAlpha" operator="out"/>
<feColorMatrix type="matrix" values="0 0 0 0 0 0 0 0 0 0 0 0 0 0 0 0 0 0 0.25 0"/>
<feBlend mode="normal" in2="BackgroundImageFix" result="effect1_dropShadow_1048_10203"/>
<feBlend mode="normal" in="SourceGraphic" in2="effect1_dropShadow_1048_10203" result="shape"/>
</filter>
</defs>
</svg>
