<svg width="94" height="94" viewBox="0 0 94 94" fill="none" xmlns="http://www.w3.org/2000/svg">
<g filter="url(#filter0_d_1048_10204)">
<circle cx="47" cy="46" r="43" fill="#360000"/>
</g>
<path d="M58.4071 39.6757L58.4068 39.6756C56.1889 38.8436 53.7784 38.5883 51.4358 38.9361L51.4357 38.9361C49.8625 39.1691 48.362 39.6605 46.9637 40.3987L46.847 40.4603L46.7303 40.3987C45.332 39.6605 43.8315 39.1697 42.2595 38.936L42.2594 38.936C41.5816 38.835 40.8899 38.7838 40.2036 38.7838C38.5196 38.7838 36.8661 39.0837 35.2884 39.675L34.7093 39.892L34.3095 40.0419L34.3744 39.6199L35.6128 31.5705L35.6141 31.562L35.6143 31.5621L35.9863 29.5949L36.0187 29.4236L36.1907 29.3948C37.3207 29.2057 38.4646 29.0461 39.6024 28.9174L39.603 28.9174C39.832 28.892 40.0626 28.8665 40.2901 28.843L40.2906 28.843C41.0267 28.7685 41.7688 28.7055 42.497 28.6559M58.4071 39.6757L43.22 28.6116C42.9814 28.625 42.7397 28.6391 42.497 28.6559M58.4071 39.6757L58.9855 39.8921L59.3851 40.0416L59.3202 39.6199L58.0818 31.5705L58.082 31.5705L58.0804 31.562L57.713 29.621L57.6799 29.4461L57.5038 29.4201L54.0779 28.9158L54.0779 28.9157L54.0691 28.9147C53.8401 28.8892 53.6103 28.8645 53.3809 28.841L53.3809 28.8409L53.3765 28.8406L51.191 28.6562L51.191 28.6562L51.187 28.6559C50.9545 28.64 50.7216 28.626 50.49 28.6128C50.4804 28.6118 50.4722 28.6114 50.4666 28.6113C50.2267 28.5973 49.987 28.586 49.7483 28.5748L49.7477 28.5748C48.7869 28.5318 47.8106 28.5097 46.8477 28.5097C45.8741 28.5097 44.8924 28.5318 43.9294 28.5754L43.9287 28.5755M58.4071 39.6757L43.9287 28.5755M42.497 28.6559L42.514 28.9045L42.4967 28.6559C42.4968 28.6559 42.4969 28.6559 42.497 28.6559ZM43.9287 28.5755L43.9061 28.5766M43.9287 28.5755L43.9061 28.5766M63.627 67.0262L63.6269 67.0262C61.3638 69.2894 58.3539 70.536 55.1536 70.536H38.5417C31.9346 70.536 26.5592 65.1607 26.5592 58.5535C26.5592 57.3549 26.7386 56.1666 27.0913 55.022L27.0914 55.0217C27.4454 53.8765 27.9665 52.7939 28.6412 51.8035L28.6412 51.8034L35.298 42.04L35.3426 41.9745L35.4168 41.9467L36.0506 41.7089L36.0507 41.7089C37.3832 41.2095 38.7809 40.9556 40.2036 40.9556C40.7835 40.9556 41.3676 40.9986 41.9409 41.0839C41.9409 41.0839 41.9409 41.0839 41.941 41.0839L41.9042 41.3312C43.4164 41.5556 44.8485 42.0679 46.1603 42.8554L63.627 67.0262ZM63.627 67.0262C65.8894 64.7631 67.1361 61.7539 67.1361 58.5535C67.1361 56.1354 66.4163 53.8013 65.0541 51.8027L65.0541 51.8027L58.3973 42.0393L58.3527 41.9739L58.2786 41.9461L57.6447 41.7083L57.6446 41.7082C55.7708 41.0061 53.7348 40.7898 51.7551 41.0839C50.2097 41.3131 48.7464 41.8373 47.4064 42.641L63.627 67.0262ZM43.9061 28.5766C43.6793 28.5875 43.45 28.5986 43.2201 28.6116L43.9061 28.5766ZM71.4453 27.8172V41.3938H69.2735V29.6441V29.3022L68.9477 29.4058L60.5703 32.071L60.3665 32.1358L60.399 32.3472L61.8144 41.5446C61.8649 41.8747 61.7607 42.206 61.5378 42.4474L61.4029 42.5935L61.515 42.7578L66.8479 50.5801L66.8479 50.5802C68.4574 52.9399 69.3079 55.6969 69.3079 58.5535C69.3079 62.3346 67.836 65.8879 65.1617 68.5616L65.1617 68.5616C62.488 71.236 58.934 72.7078 55.1529 72.7078H38.5411C34.76 72.7078 31.206 71.2359 28.5323 68.5623C25.8586 65.888 24.3868 62.3346 24.3868 58.5535C24.3868 57.1377 24.5981 55.7345 25.0155 54.3818C25.4337 53.0283 26.05 51.7498 26.8468 50.5808C26.8468 50.5808 26.8468 50.5808 26.8468 50.5808L32.1804 42.7585L32.2925 42.5939L32.1573 42.4478C31.9341 42.2068 31.8304 41.875 31.8809 41.5454L33.2963 32.3479L33.3288 32.1365L33.125 32.0716L23.0069 28.8521L23.0069 28.8521C22.5562 28.7088 22.25 28.2901 22.25 27.8172C22.25 27.3443 22.5563 26.9257 23.0063 26.7823L46.518 19.3014L46.5182 19.3013C46.7326 19.2329 46.962 19.2329 47.1765 19.3013L47.1766 19.3014L70.5142 26.7269V26.7273L70.688 26.7829C70.7988 26.8184 70.9043 26.8712 71.0003 26.9412L71.1467 26.7404L71.0004 26.9412C71.2802 27.1451 71.4453 27.4707 71.4453 27.8172ZM46.9235 21.5L46.8477 21.4759L46.7719 21.5L27.6659 27.579L26.917 27.8173L27.6659 28.0555L33.4363 29.891L33.7053 29.9766L33.7577 29.6992L34.0256 28.2832C34.0256 28.2832 34.0256 28.2832 34.0256 28.2832C34.1092 27.8417 34.4563 27.497 34.898 27.4166L34.8981 27.4166C36.3673 27.1491 37.8693 26.9282 39.3613 26.7598C39.5988 26.7332 39.8344 26.7079 40.0708 26.6833C40.8333 26.6061 41.5992 26.5416 42.3511 26.4903C42.6005 26.4737 42.8493 26.4584 43.0987 26.4444C43.3441 26.4311 43.5872 26.4184 43.8301 26.4071C44.8274 26.3619 45.8422 26.3393 46.8483 26.3393C47.8438 26.3393 48.8526 26.3619 49.8474 26.4065C50.096 26.4178 50.3415 26.4298 50.5881 26.4437L50.588 26.4441H50.5936C50.5959 26.4443 50.5988 26.4445 50.6022 26.4446C50.849 26.4585 51.0964 26.4736 51.3431 26.4901L51.3617 26.4919L51.3633 26.492L53.5702 26.6783L53.5709 26.6784L53.5886 26.68C53.5887 26.68 53.5889 26.6801 53.589 26.6801C53.8357 26.7045 54.084 26.7317 54.3318 26.7596C54.3325 26.7597 54.3333 26.7597 54.3341 26.7598L54.3711 26.7648L54.3752 26.7653L58.7615 27.4107C59.2193 27.478 59.5846 27.8283 59.6704 28.283L59.6704 28.2832L59.9383 29.6992L59.9907 29.9766L60.2597 29.891L66.0294 28.0555L66.7782 27.8173L66.0294 27.579L46.9235 21.5ZM50.5841 26.4433L50.5851 26.4434L50.5841 26.4433Z" fill="white" stroke="#360000" stroke-width="0.5"/>
<path d="M47.9333 65.4841V66.7102H45.7616V65.4841V65.2456L45.5233 65.2343C42.7684 65.1042 40.5509 62.8855 40.4237 60.13H42.5995C42.7199 61.6763 43.9482 62.9155 45.489 63.0552L45.7616 63.0799V62.8063V56.9343V56.6959L45.5233 56.6846C42.6856 56.5506 40.418 54.2004 40.418 51.3302C40.418 48.4601 42.6856 46.1099 45.5233 45.9759L45.7616 45.9646V45.7262V44.5H47.9333V45.7262V45.9646L48.1715 45.9759C50.9265 46.106 53.144 48.3247 53.2712 51.0802H51.0954C50.975 49.5339 49.7467 48.2947 48.2059 48.155L47.9333 48.1303V48.404V54.2759V54.5144L48.1715 54.5256C51.0093 54.6596 53.2769 57.0098 53.2769 59.88C53.2769 62.7502 51.0093 65.1003 48.1715 65.2343L47.9333 65.2456V65.4841ZM45.7616 48.404V48.1303L45.489 48.155C43.866 48.3021 42.5898 49.6693 42.5898 51.3302C42.5898 52.9912 43.866 54.3584 45.489 54.5055L45.7616 54.5302V54.2565V48.404ZM47.9333 62.8063V63.0799L48.2059 63.0552C49.8289 62.9081 51.1051 61.541 51.1051 59.88C51.1051 58.219 49.8289 56.8519 48.2059 56.7047L47.9333 56.68V56.9537V62.8063Z" fill="white" stroke="#360000" stroke-width="0.5"/>
<defs>
<filter id="filter0_d_1048_10204" x="0.4" y="0.4" width="93.2" height="93.2" filterUnits="userSpaceOnUse" color-interpolation-filters="sRGB">
<feFlood flood-opacity="0" result="BackgroundImageFix"/>
<feColorMatrix in="SourceAlpha" type="matrix" values="0 0 0 0 0 0 0 0 0 0 0 0 0 0 0 0 0 0 127 0" result="hardAlpha"/>
<feOffset dy="1"/>
<feGaussianBlur stdDeviation="1.8"/>
<feComposite in2="hardAlpha" operator="out"/>
<feColorMatrix type="matrix" values="0 0 0 0 0 0 0 0 0 0 0 0 0 0 0 0 0 0 0.25 0"/>
<feBlend mode="normal" in2="BackgroundImageFix" result="effect1_dropShadow_1048_10204"/>
<feBlend mode="normal" in="SourceGraphic" in2="effect1_dropShadow_1048_10204" result="shape"/>
</filter>
</defs>
</svg>
