<svg width="94" height="94" viewBox="0 0 94 94" fill="none" xmlns="http://www.w3.org/2000/svg">
<g filter="url(#filter0_d_1044_9867)">
<circle cx="47" cy="43" r="43" fill="#360000"/>
</g>
<path d="M35.7865 57.2708H25.2695C24.481 57.2708 23.8996 57.0591 23.4949 56.6266C22.7088 55.7916 22.7879 54.3753 22.7879 54.3636C22.7902 54.3427 22.7902 54.3217 22.7902 54.3008V32.9595C22.7902 32.4664 22.3901 32.0664 21.8971 32.0664C21.404 32.0664 21.004 32.4664 21.004 32.9595V54.28C20.99 54.587 20.9482 56.5173 22.1832 57.8407C22.9367 58.6501 23.9763 59.0594 25.2718 59.0594H25.3625V67.0972C25.3625 67.5903 25.7625 67.9903 26.2556 67.9903H29.3395C29.8326 67.9903 30.2326 67.5903 30.2326 67.0972V59.0594H35.7888C36.2819 59.0594 36.6819 58.6594 36.6819 58.1663C36.6819 57.6709 36.2795 57.2708 35.7865 57.2708ZM28.4441 66.2017H27.1463V59.057H28.4441V66.2017Z" fill="white"/>
<path d="M72.9969 54.2776V32.9595C72.9969 32.4664 72.5968 32.0664 72.1038 32.0664C71.6107 32.0664 71.2107 32.4664 71.2107 32.9595L71.213 54.3633C71.2153 54.3773 71.2921 55.7936 70.506 56.6286C70.099 57.0612 69.5175 57.2728 68.7314 57.2728L67.7453 57.2705H58.2095C57.7164 57.2705 57.3164 57.6705 57.3164 58.1636C57.3164 58.6566 57.7164 59.0567 58.2095 59.0567H63.7657V67.0945C63.7657 67.5876 64.1657 67.9876 64.6588 67.9876H67.7428C68.2358 67.9876 68.6359 67.5876 68.6359 67.0945V59.0567H68.7266C70.022 59.0567 71.0616 58.6474 71.8152 57.838C73.0525 56.5146 73.0108 54.5846 72.9969 54.2776ZM66.8524 66.2015H65.5546V59.0568H66.8524V66.2015Z" fill="white"/>
<path d="M62.2832 28.8125C65.402 28.8125 67.9394 26.2751 67.9394 23.1562C67.9394 20.0374 65.402 17.5 62.2832 17.5C59.1643 17.5 56.627 20.0374 56.627 23.1562C56.627 26.2751 59.1643 28.8125 62.2832 28.8125ZM62.2832 19.2862C64.4182 19.2862 66.1533 21.0212 66.1533 23.1562C66.1533 25.2913 64.4182 27.0263 62.2832 27.0263C60.1482 27.0263 58.4131 25.2913 58.4131 23.1562C58.4131 21.0212 60.1482 19.2862 62.2832 19.2862Z" fill="white"/>
<path d="M68.0482 53.4845C69.3878 52.0146 69.3041 49.8889 69.2785 49.5308L69.2809 34.6155C69.2809 31.8246 67.0109 29.5547 64.22 29.5547H63.8479C61.057 29.5547 58.787 31.8246 58.787 34.6155V47.3558L52.3747 47.4511C52.3491 47.4511 52.3212 47.4535 52.2956 47.4558C50.9443 47.5953 48.3906 48.6163 48.3906 51.4909V65.5988C48.3906 67.4361 49.8861 68.9293 51.7211 68.9293C53.5585 68.9293 55.0517 67.4339 55.0517 65.5988L55.054 54.8585H64.5803C66.0525 54.8585 67.2177 54.3957 68.048 53.484L68.0482 53.4845ZM54.1612 53.0729C53.6682 53.0729 53.2682 53.4729 53.2682 53.966V65.6017C53.2682 66.453 52.5751 67.1461 51.7238 67.1461C50.8726 67.1461 50.1795 66.453 50.1795 65.6017L50.1772 51.4915C50.1772 49.6193 52.1006 49.282 52.4471 49.2355L59.6919 49.1262C60.1803 49.1192 60.571 48.7215 60.571 48.2331L60.5733 34.6158C60.5733 32.8111 62.0432 31.3412 63.848 31.3412H64.2201C66.0249 31.3412 67.4948 32.8111 67.4948 34.6158V49.5656C67.4948 49.5935 67.4971 49.6214 67.4994 49.6493C67.5018 49.6656 67.625 51.3006 66.7296 52.2844C66.2458 52.8147 65.5435 53.0728 64.5806 53.0728L54.1612 53.0729Z" fill="white"/>
<path d="M31.582 28.8125C34.7009 28.8125 37.2383 26.2751 37.2383 23.1562C37.2383 20.0374 34.7009 17.5 31.582 17.5C28.4632 17.5 25.9258 20.0374 25.9258 23.1562C25.9258 26.2751 28.4632 28.8125 31.582 28.8125ZM31.582 19.2862C33.717 19.2862 35.4521 21.0212 35.4521 23.1562C35.4521 25.2913 33.717 27.0263 31.582 27.0263C29.447 27.0263 27.712 25.2913 27.712 23.1562C27.712 21.0212 29.447 19.2862 31.582 19.2862Z" fill="white"/>
<path d="M41.5691 47.454C41.5436 47.4517 41.518 47.4493 41.4901 47.4493L35.0777 47.354L35.08 34.6155C35.08 31.8246 32.8101 29.5547 30.0191 29.5547H29.647C26.8561 29.5547 24.5862 31.8246 24.5862 34.6155V49.5331C24.5629 49.8913 24.4769 52.0171 25.8165 53.4869C26.6468 54.3986 27.8143 54.8591 29.2842 54.8591H38.8105V65.6018C38.8105 67.4391 40.3059 68.9323 42.141 68.9323C43.9783 68.9323 45.4715 67.4369 45.4715 65.6018L45.4738 51.4916C45.4738 48.6169 42.9204 47.5935 41.5691 47.454ZM43.6879 65.5998C43.6879 66.4511 42.9948 67.1442 42.1436 67.1442C41.2923 67.1442 40.5992 66.4511 40.5992 65.5998V53.9664C40.5992 53.4734 40.1992 53.0733 39.7061 53.0733H29.2868C28.3285 53.0733 27.6285 52.8175 27.1447 52.2919C26.24 51.3058 26.3679 49.6637 26.3679 49.6498C26.3702 49.6219 26.3725 49.594 26.3725 49.5661V34.6163C26.3725 32.8116 27.8425 31.3417 29.6472 31.3417H30.0193C31.8241 31.3417 33.294 32.8116 33.294 34.6163V48.236C33.294 48.7244 33.6847 49.1221 34.1732 49.1291L41.4203 49.2384C41.7133 49.2756 43.6879 49.6012 43.6879 51.4944L43.6879 65.5998Z" fill="white"/>
<defs>
<filter id="filter0_d_1044_9867" x="0" y="0" width="94" height="94" filterUnits="userSpaceOnUse" color-interpolation-filters="sRGB">
<feFlood flood-opacity="0" result="BackgroundImageFix"/>
<feColorMatrix in="SourceAlpha" type="matrix" values="0 0 0 0 0 0 0 0 0 0 0 0 0 0 0 0 0 0 127 0" result="hardAlpha"/>
<feOffset dy="4"/>
<feGaussianBlur stdDeviation="2"/>
<feComposite in2="hardAlpha" operator="out"/>
<feColorMatrix type="matrix" values="0 0 0 0 0 0 0 0 0 0 0 0 0 0 0 0 0 0 0.25 0"/>
<feBlend mode="normal" in2="BackgroundImageFix" result="effect1_dropShadow_1044_9867"/>
<feBlend mode="normal" in="SourceGraphic" in2="effect1_dropShadow_1044_9867" result="shape"/>
</filter>
</defs>
</svg>
