<svg width="94" height="94" viewBox="0 0 94 94" fill="none" xmlns="http://www.w3.org/2000/svg">
<g filter="url(#filter0_d_1048_10202)">
<circle cx="47" cy="46" r="43" fill="#360000"/>
</g>
<path d="M62.9481 58.1008C63.2745 58.4272 63.2745 58.9567 62.9481 59.2852L57.9236 64.3097C57.7666 64.4667 57.5532 64.5545 57.3314 64.5545C57.1095 64.5545 56.8961 64.4667 56.7391 64.3097L53.9266 61.4951C53.6001 61.1686 53.6001 60.6391 53.9266 60.3106C54.253 59.9842 54.7825 59.9842 55.111 60.3106L57.3313 62.533L61.7636 58.1008C62.09 57.7743 62.6196 57.7743 62.9481 58.1008ZM54.9267 39.9028C54.9267 46.0802 49.9001 51.1069 43.7226 51.1069C37.5451 51.1069 32.5185 46.0804 32.5185 39.9028C32.5185 33.7253 37.5451 28.6987 43.7226 28.6987C49.9001 28.6987 54.9267 33.7253 54.9267 39.9028ZM47.0687 30.99C47.7719 32.1096 48.3306 33.5849 48.6843 35.3176H52.0723C50.982 33.338 49.2053 31.7957 47.0666 30.99H47.0687ZM47.2675 36.9917H40.1799C40.0606 37.8957 39.9937 38.8688 39.9937 39.9026C39.9937 40.9364 40.0606 41.9095 40.1799 42.8135H47.2675C47.3868 41.9095 47.4538 40.9364 47.4538 39.9026C47.4538 38.8709 47.3868 37.8957 47.2675 36.9917ZM40.4789 35.3176H46.9681C46.2754 32.2707 44.9508 30.3726 43.7223 30.3726C42.4939 30.3726 41.1693 32.2727 40.4766 35.3176H40.4789ZM35.3728 35.3176H38.7608C39.1166 33.5848 39.6732 32.1095 40.3763 30.99C38.2397 31.7956 36.463 33.3379 35.3706 35.3176H35.3728ZM34.6508 42.8134H38.495C38.3841 41.8905 38.3192 40.9195 38.3192 39.9025C38.3192 38.8855 38.3841 37.9145 38.495 36.9916H34.6508C34.3557 37.9103 34.1925 38.8876 34.1925 39.9025C34.1925 40.9174 34.3557 41.8948 34.6508 42.8134ZM40.3766 48.8151C39.6735 47.6956 39.1147 46.2202 38.7611 44.4875H35.3731C36.4634 46.4671 38.24 48.0094 40.3787 48.8151H40.3766ZM46.9687 44.4875H40.4795C41.1721 47.5344 42.4968 49.4325 43.7252 49.4325C44.9536 49.4325 46.2782 47.5323 46.9709 44.4875H46.9687ZM52.0747 44.4875H48.6867C48.331 46.2202 47.7743 47.6956 47.0712 48.8151C49.2078 48.0094 50.9845 46.4671 52.0769 44.4875H52.0747ZM52.7967 42.8134C53.0918 41.8947 53.255 40.9174 53.255 39.9025C53.255 38.8875 53.0918 37.9102 52.7967 36.9916H48.9525C49.0634 37.9144 49.1283 38.8854 49.1283 39.9025C49.1283 40.9195 49.0634 41.8884 48.9525 42.8134H52.7967ZM47.364 55.6375H35.7854C35.3229 55.6375 34.9483 56.0121 34.9483 56.4745C34.9483 56.937 35.3229 57.3116 35.7854 57.3116H47.364C47.8264 57.3116 48.201 56.937 48.201 56.4745C48.201 56.0121 47.8264 55.6375 47.364 55.6375ZM68 61.2063C68 66.3815 63.7895 70.5938 58.6125 70.5938C55.2266 70.5938 52.2631 68.7857 50.6099 66.0904L28.7958 66.0883C27.2535 66.0883 26 64.8369 26 63.3009V24.7958C26 23.2535 27.2535 22 28.7958 22H58.6457C60.188 22 61.4416 23.2535 61.4416 24.7958V52.2559C65.2377 53.4613 67.9956 57.0146 67.9956 61.2041L68 61.2063ZM49.2245 61.2063C49.2245 56.0311 53.435 51.8189 58.612 51.8189C59.0054 51.8189 59.3905 51.8502 59.7714 51.8984L59.7672 24.7962C59.7672 24.1768 59.2649 23.6745 58.6455 23.6745H28.7956C28.1762 23.6745 27.6739 24.1767 27.6739 24.7962V63.3012C27.6739 63.9144 28.1761 64.4145 28.7956 64.4145H49.7975C49.4313 63.4121 49.2199 62.3323 49.2199 61.2044L49.2245 61.2063ZM66.3259 61.2063C66.3259 56.954 62.8646 53.493 58.6125 53.493C54.3604 53.493 50.8992 56.9542 50.8992 61.2063C50.8992 65.4584 54.3604 68.9196 58.6125 68.9196C62.8646 68.9196 66.3259 65.4584 66.3259 61.2063Z" fill="white"/>
<defs>
<filter id="filter0_d_1048_10202" x="0.4" y="0.4" width="93.2" height="93.2" filterUnits="userSpaceOnUse" color-interpolation-filters="sRGB">
<feFlood flood-opacity="0" result="BackgroundImageFix"/>
<feColorMatrix in="SourceAlpha" type="matrix" values="0 0 0 0 0 0 0 0 0 0 0 0 0 0 0 0 0 0 127 0" result="hardAlpha"/>
<feOffset dy="1"/>
<feGaussianBlur stdDeviation="1.8"/>
<feComposite in2="hardAlpha" operator="out"/>
<feColorMatrix type="matrix" values="0 0 0 0 0 0 0 0 0 0 0 0 0 0 0 0 0 0 0.25 0"/>
<feBlend mode="normal" in2="BackgroundImageFix" result="effect1_dropShadow_1048_10202"/>
<feBlend mode="normal" in="SourceGraphic" in2="effect1_dropShadow_1048_10202" result="shape"/>
</filter>
</defs>
</svg>
