<svg width="94" height="94" viewBox="0 0 94 94" fill="none" xmlns="http://www.w3.org/2000/svg">
<g filter="url(#filter0_d_1048_10201)">
<circle cx="47" cy="46" r="43" fill="#360000"/>
</g>
<path fill-rule="evenodd" clip-rule="evenodd" d="M56.4447 55.4494C55.8209 56.071 55.1545 56.6416 54.4562 57.1484V51.7938C54.4562 47.3484 51.5778 43.5648 47.5898 42.2044C49.2973 41.125 50.4343 39.2195 50.4343 37.05C50.4343 33.6818 47.6963 30.9483 44.3304 30.9483C40.9645 30.9483 38.2265 33.682 38.2265 37.05C38.2265 39.2195 39.3634 41.1271 41.071 42.2044C37.0832 43.5649 34.2068 47.3461 34.2068 51.7938V56.8354C26.2165 50.6122 25.4883 38.7832 32.6355 31.6383C39.2228 25.0554 49.8598 25.0532 56.4449 31.6383C63.0301 38.2213 63.0192 48.8626 56.4449 55.4499L56.4447 55.4494ZM44.3302 41.6659C46.8765 41.6659 48.9502 39.5965 48.9502 37.0501C48.9502 34.5037 46.8787 32.4279 44.3302 32.4279C41.7838 32.4279 39.7122 34.5037 39.7122 37.0501C39.7101 39.5965 41.7838 41.6659 44.3302 41.6659ZM35.6902 57.8699C40.9405 61.1209 47.632 61.2231 52.9696 58.1211V51.7938C52.9696 47.0268 49.0925 43.1522 44.3296 43.1522C39.5648 43.1522 35.6881 47.0271 35.6881 51.7938L35.6902 57.8699ZM57.4939 30.5842C54.0342 27.1224 49.4334 25.2233 44.5384 25.2233C39.6458 25.2233 35.0427 27.1224 31.5828 30.5842C24.4379 37.7269 24.4379 49.3542 31.5828 56.4969C38.7452 63.6593 50.3332 63.6593 57.4934 56.4969C64.6535 49.3368 64.6541 37.7466 57.4939 30.5842ZM44.6665 57.5636C44.6665 57.1569 44.3343 56.8226 43.9234 56.8226C43.5146 56.8226 43.1825 57.1548 43.1825 57.5636C43.1825 57.9766 43.5146 58.3109 43.9234 58.3109C44.3343 58.3087 44.6665 57.9702 44.6665 57.5636ZM47.8899 49.4986C47.8899 47.3164 46.11 45.5344 43.9256 45.5344C42.7929 45.5344 41.7114 46.0241 40.9598 46.8693C40.6873 47.1759 40.7171 47.6464 41.0237 47.9168C41.3303 48.1872 41.7987 48.1616 42.0712 47.855C42.5417 47.3228 43.2188 47.0205 43.9277 47.0205C45.2946 47.0205 46.4081 48.1297 46.4081 49.4966C46.4081 50.5568 45.7374 51.4979 44.7389 51.8428C43.7957 52.1686 43.1868 53.0223 43.1868 54.0187L43.1825 54.7724C43.1825 55.1854 43.5147 55.5197 43.9235 55.5197C44.3344 55.5197 44.6665 55.1875 44.6665 54.7724V54.0208C44.6665 53.6631 44.8794 53.3693 45.2179 53.2501C46.8168 52.6966 47.8899 51.1913 47.8899 49.4986ZM69.451 65.8607L66.8578 68.4517C66.7663 68.5433 66.63 68.5433 66.5385 68.4517L61.4266 63.3399C61.3414 63.2526 61.3414 63.1078 61.4266 63.0205L64.0198 60.4295C64.1049 60.3443 64.254 60.3464 64.337 60.4295L69.4489 65.5413C69.5362 65.6286 69.5362 65.7734 69.451 65.8607ZM60.1194 59.118C60.3195 58.9179 60.5154 58.7156 60.707 58.5091L62.274 60.0761L61.0732 61.2747L59.5062 59.7077C59.7128 59.5204 59.9172 59.3202 60.1194 59.118ZM59.0698 58.0726C59.1975 57.947 59.321 57.815 59.4445 57.6894C66.2809 50.4955 66.9878 39.5778 61.5671 31.6126C60.7538 30.4161 59.4636 28.8726 58.2714 27.8378C50.3749 20.7267 38.3072 20.7202 30.4063 27.825C29.8421 28.3467 29.3397 28.8427 28.8202 29.4048C21.72 37.3078 21.7221 49.3668 28.8287 57.2676C28.8372 57.274 28.8457 57.2868 28.8564 57.2996C29.0991 57.5806 30.1274 58.6217 30.3935 58.8304C38.2987 65.948 50.3789 65.9415 58.2798 58.824L59.0698 58.0726ZM70.5008 64.4937L65.389 59.3819C64.8546 58.8453 64.0307 58.7283 63.377 59.0817L61.6844 57.3891C65.2804 52.967 67.0156 47.404 66.5983 41.668C66.2065 36.3304 63.9412 31.3695 60.1194 27.5461C51.4648 18.8914 37.3407 18.7448 28.541 27.5461C23.046 33.0433 20.8893 40.8145 22.5435 48.2597C23.4504 52.339 25.5177 56.0968 28.541 59.1223C32.7587 63.3421 38.3642 65.6627 44.3302 65.6627C49.5081 65.6627 54.4178 63.9127 58.384 60.6893L60.0766 62.3819C59.7338 63.027 59.8339 63.8488 60.3768 64.3959L65.4887 69.5078C66.1508 70.1699 67.2473 70.1678 67.9073 69.5078L70.4983 66.9125C71.1669 66.2439 71.1673 65.1579 70.5008 64.4937Z" fill="white"/>
<defs>
<filter id="filter0_d_1048_10201" x="0.4" y="0.4" width="93.2" height="93.2" filterUnits="userSpaceOnUse" color-interpolation-filters="sRGB">
<feFlood flood-opacity="0" result="BackgroundImageFix"/>
<feColorMatrix in="SourceAlpha" type="matrix" values="0 0 0 0 0 0 0 0 0 0 0 0 0 0 0 0 0 0 127 0" result="hardAlpha"/>
<feOffset dy="1"/>
<feGaussianBlur stdDeviation="1.8"/>
<feComposite in2="hardAlpha" operator="out"/>
<feColorMatrix type="matrix" values="0 0 0 0 0 0 0 0 0 0 0 0 0 0 0 0 0 0 0.25 0"/>
<feBlend mode="normal" in2="BackgroundImageFix" result="effect1_dropShadow_1048_10201"/>
<feBlend mode="normal" in="SourceGraphic" in2="effect1_dropShadow_1048_10201" result="shape"/>
</filter>
</defs>
</svg>
