<svg width="71" height="71" viewBox="0 0 71 71" fill="none" xmlns="http://www.w3.org/2000/svg">
<g filter="url(#filter0_d_658_3958)">
<circle cx="35.5" cy="34.5" r="32.5" fill="#360000"/>
</g>
<path fill-rule="evenodd" clip-rule="evenodd" d="M42.6393 41.6389C42.1678 42.1087 41.6641 42.54 41.1363 42.923V38.8759C41.1363 35.516 38.9607 32.6564 35.9466 31.6282C37.2372 30.8123 38.0965 29.3721 38.0965 27.7324C38.0965 25.1867 36.0271 23.1206 33.4831 23.1206C30.9391 23.1206 28.8697 25.1868 28.8697 27.7324C28.8697 29.3721 29.729 30.8139 31.0196 31.6282C28.0056 32.6564 25.8315 35.5143 25.8315 38.8759V42.6865C19.7924 37.9828 19.242 29.0424 24.6439 23.6422C29.6227 18.6667 37.6623 18.665 42.6394 23.6422C47.6166 28.6176 47.6083 36.6605 42.6394 41.6393L42.6393 41.6389ZM33.4829 31.2212C35.4075 31.2212 36.9748 29.657 36.9748 27.7325C36.9748 25.8079 35.4091 24.2389 33.4829 24.2389C31.5584 24.2389 29.9926 25.8079 29.9926 27.7325C29.991 29.657 31.5584 31.2212 33.4829 31.2212ZM26.9527 43.4683C30.9209 45.9255 35.9785 46.0027 40.0127 43.6582V38.8759C40.0127 35.273 37.0824 32.3445 33.4825 32.3445C29.8812 32.3445 26.9511 35.2732 26.9511 38.8759L26.9527 43.4683ZM43.4323 22.8454C40.8174 20.2289 37.34 18.7936 33.6403 18.7936C29.9424 18.7936 26.4634 20.229 23.8483 22.8454C18.4481 28.244 18.4481 37.0321 23.8483 42.4306C29.2617 47.844 38.0201 47.844 43.4319 42.4306C48.8436 37.0189 48.844 28.2588 43.4323 22.8454ZM33.7371 43.2368C33.7371 42.9295 33.4861 42.6768 33.1755 42.6768C32.8665 42.6768 32.6155 42.9278 32.6155 43.2368C32.6155 43.549 32.8665 43.8016 33.1755 43.8016C33.4861 43.8 33.7371 43.5442 33.7371 43.2368ZM36.1734 37.1412C36.1734 35.4918 34.8281 34.145 33.1771 34.145C32.3211 34.145 31.5036 34.5151 30.9356 35.1539C30.7296 35.3856 30.7521 35.7413 30.9838 35.9456C31.2156 36.15 31.5696 36.1307 31.7756 35.899C32.1312 35.4967 32.6429 35.2682 33.1787 35.2682C34.2118 35.2682 35.0534 36.1066 35.0534 37.1397C35.0534 37.941 34.5465 38.6523 33.7918 38.913C33.079 39.1592 32.6187 39.8045 32.6187 40.5576L32.6155 41.1272C32.6155 41.4394 32.8666 41.692 33.1755 41.692C33.4861 41.692 33.7371 41.441 33.7371 41.1272V40.5592C33.7371 40.2888 33.898 40.0668 34.1539 39.9766C35.3624 39.5583 36.1734 38.4205 36.1734 37.1412ZM52.4696 49.5079L50.5096 51.4662C50.4404 51.5354 50.3375 51.5354 50.2683 51.4662L46.4047 47.6026C46.3403 47.5366 46.3403 47.4272 46.4047 47.3613L48.3646 45.4029C48.429 45.3385 48.5416 45.3401 48.6044 45.4029L52.468 49.2665C52.534 49.3325 52.534 49.4419 52.4696 49.5079ZM45.4167 44.4117C45.5679 44.2604 45.716 44.1076 45.8608 43.9515L47.0451 45.1358L46.1376 46.0418L44.9532 44.8574C45.1093 44.7158 45.2638 44.5645 45.4167 44.4117ZM44.6233 43.6216C44.7199 43.5266 44.8132 43.4269 44.9065 43.3319C50.0736 37.8946 50.6079 29.6429 46.5109 23.6227C45.8962 22.7184 44.921 21.5518 44.0199 20.7697C38.0516 15.395 28.9307 15.3901 22.9591 20.76C22.5326 21.1543 22.1529 21.5292 21.7602 21.954C16.3938 27.9272 16.3955 37.0416 21.7667 43.0131C21.7731 43.018 21.7795 43.0276 21.7876 43.0373C21.971 43.2497 22.7483 44.0366 22.9494 44.1943C28.9243 49.5739 38.0547 49.5689 44.0263 44.1894L44.6233 43.6216ZM53.2631 48.4747L49.3995 44.6111C48.9956 44.2056 48.3728 44.1171 47.8788 44.3842L46.5995 43.1049C49.3174 39.7627 50.6289 35.5581 50.3135 31.2227C50.0174 27.1885 48.3052 23.439 45.4167 20.5492C38.8754 14.0079 28.2002 13.8971 21.5493 20.5492C17.396 24.7041 15.766 30.5776 17.0162 36.2048C17.7017 39.288 19.2642 42.1282 21.5493 44.4149C24.737 47.6043 28.9738 49.3583 33.483 49.3583C37.3965 49.3583 41.1073 48.0355 44.105 45.5993L45.3843 46.8786C45.1252 47.3661 45.2009 47.9873 45.6112 48.4008L49.4748 52.2644C49.9753 52.7649 50.804 52.7633 51.3028 52.2644L53.2612 50.3029C53.7665 49.7976 53.7668 48.9768 53.2631 48.4747Z" fill="white"/>
<defs>
<filter id="filter0_d_658_3958" x="0.27907" y="0.0348839" width="70.4419" height="70.4419" filterUnits="userSpaceOnUse" color-interpolation-filters="sRGB">
<feFlood flood-opacity="0" result="BackgroundImageFix"/>
<feColorMatrix in="SourceAlpha" type="matrix" values="0 0 0 0 0 0 0 0 0 0 0 0 0 0 0 0 0 0 127 0" result="hardAlpha"/>
<feOffset dy="0.755814"/>
<feGaussianBlur stdDeviation="1.36047"/>
<feComposite in2="hardAlpha" operator="out"/>
<feColorMatrix type="matrix" values="0 0 0 0 0 0 0 0 0 0 0 0 0 0 0 0 0 0 0.25 0"/>
<feBlend mode="normal" in2="BackgroundImageFix" result="effect1_dropShadow_658_3958"/>
<feBlend mode="normal" in="SourceGraphic" in2="effect1_dropShadow_658_3958" result="shape"/>
</filter>
</defs>
</svg>
